<?xml version="1.0" encoding="UTF-8" standalone="no"?>
<!-- Created with Inkscape (http://www.inkscape.org/) -->

<svg
   version="1.1"
   id="svg1"
   width="469.22562"
   height="427.85825"
   viewBox="0 0 469.22562 427.85825"
   xmlns="http://www.w3.org/2000/svg"
   xmlns:svg="http://www.w3.org/2000/svg">
  <defs
     id="defs1" />
  <g
     id="g1"
     transform="translate(-277.53926,-263.05548)">
    <g
       id="g115"
       transform="translate(-0.46034,-0.06418)">
      <path
         style="fill:#fcc70c"
         d="M 509,687.28263 C 507.625,685.24559 498.44517,671.86116 488.60037,657.53946 453.44117,606.39167 446.59315,595.90121 430.15035,568 c -14.5822,-24.74401 -22.38898,-45.01119 -25.56014,-66.35667 -1.98919,-13.38943 -2.00858,-21.92826 -0.0756,-33.26234 4.67352,-27.40277 16.93421,-48.50112 38.67958,-66.56032 15.81377,-13.1331 44.185,-24.47992 59.06523,-23.6226 L 507.5,378.5 l 0.5,19 0.5,19 2.81047,0.32226 c 1.54576,0.17724 3.36697,-0.0478 4.04713,-0.5 0.68016,-0.45224 0.55963,0.59046 -0.48972,1.553 -2.03823,1.86952 -6.85062,1.7163 -8.41788,0.21429 -2.17712,-2.08647 -15.08423,1.63892 -19.7,5.68603 -2.34767,2.05844 -3.34412,1.68957 0.82022,4.75754 l 3.44932,2.5412 6.59557,-2.03716 c 6.89241,-2.12885 13.13415,-2.91133 15.38489,-1.48431 0.83894,0.53191 -0.98508,1.3559 -4.67649,1.70193 -16.31014,1.5289 -30.12614,12.21745 -35.47926,27.44803 -1.59949,4.55082 -1.95103,7.64887 -1.68302,14.83174 0.30322,8.12649 0.73467,9.87988 4.11111,16.70708 6.63539,13.41684 16.72683,20.23224 32.99701,22.28499 2.62315,0.33095 4.50909,1.02285 4.19099,1.53756 -0.9112,1.47434 -6.28001,1.07639 -14.96034,-1.10891 -7.42394,-1.869 -8.45392,-2.46195 -14.30376,-8.23465 -10.0122,-9.88016 -15.57111,-23.78626 -15.02989,-37.59858 0.11857,-3.02604 -0.42126,-4.76448 -2.002,-6.4471 -1.19039,-1.26711 -2.17866,-3.39984 -2.19615,-4.73939 -0.0308,-2.35716 -0.0791,-2.37307 -1.5,-0.49442 -0.80751,1.06762 -1.4682,3.20512 -1.4682,4.75 0,1.54488 -0.39152,2.80887 -0.87004,2.80887 -0.47852,0 -1.42664,2.1375 -2.10692,4.75 -0.68029,2.6125 -1.43527,5.5097 -1.67774,6.43822 -0.24247,0.92852 -2.10686,2.22672 -4.14308,2.8849 -15.55936,5.02934 -28.10789,11.40006 -37.5808,19.07929 l -7.83023,6.34759 0.59345,5 c 0.78034,6.57449 5.73758,23.49909 9.01665,30.78391 2.37652,5.27969 2.78347,5.68758 4.66815,4.67893 1.61476,-0.8642 2.61932,-0.74157 4.60997,0.56276 2.23545,1.46472 2.46931,2.14288 1.92112,5.57107 -0.54146,3.38614 -0.37265,3.90333 1.27411,3.90333 1.47578,0 2.04462,0.97592 2.55582,4.38483 0.36295,2.42033 1.5481,5.19078 2.64528,6.18371 1.09325,0.98938 1.88039,2.50371 1.74919,3.36517 -0.3329,2.18582 4.8845,10.06629 6.66456,10.06629 2.15781,0 4.32543,3.88389 5.02294,9 1.12154,8.22621 1.47729,9.21792 3.08534,8.60086 5.25623,-2.01701 14.32061,8.9673 12.97485,15.72307 -1.1474,5.76002 -0.72194,7.00614 5.50801,16.13217 3.39563,4.97415 12.2651,18.02377 19.70992,28.99918 7.44482,10.9754 15.10309,22.0004 17.01838,24.5 1.91529,2.49959 4.72377,5.67046 5.53048,7.59546 0.80672,1.925 1.27954,3.99534 1.90522,4.39942 0.76258,0.49249 -0.60079,-0.1332 -0.36466,0.92961 -0.825,0.005 -2.50497,-1.5601 -3.87997,-3.59714 z M 279.197,465.01057 c 0.27112,-1.63132 0.46753,-4.46057 1.34147,-10.51057 7.87455,-54.51298 36.47314,-104.06182 80.47523,-139.42832 42.87134,-34.45768 94.58959,-52.81522 151.9305,-51.92082 0.0558,10.74215 6.8197,-0.51815 0,0 L 513,273.89301 c 0.0394,7.58876 0.27352,9.23655 1.73725,10.30686 1.4469,1.058 -0.83796,0.80013 -8.32598,0.80013 -11.59133,0 -30.99329,2.41824 -44.91127,5.59768 -80.14717,18.30897 -139.99289,78.25016 -154.45665,154.70308 -1.33159,9.13902 -2.39924,16.05906 -3.54335,24.19924 -5.61733,1.6343 -23.93444,-0.69958 -24.26821,0.3352 -0.53377,1.65484 -0.45512,-2.29554 -0.0348,-4.82463 z M 407.59773,417.75 c -0.7966,-1.2375 -2.42785,-5.175 -3.625,-8.75 -3.21264,-9.59378 -2.54959,-22.04758 1.65046,-31 11.07059,-23.59704 38.73477,-32.48321 63.12292,-20.27608 C 475.9933,361.3514 483,366.81877 483,368.84633 c 0,0.59212 -1.9125,1.5732 -4.25,2.18018 -23.23077,6.03237 -47.52225,22.20242 -62.26096,41.44511 -3.17146,4.14061 -6.14353,7.52838 -6.60461,7.52838 -0.46108,0 -1.49009,-1.0125 -2.2867,-2.25 z m -27.76286,-31.97199 c -5.29966,-4.00291 -9.79305,-7.72801 -9.98531,-8.27801 -0.43434,-1.24254 12.47,-3.35299 21.01707,-3.43724 6.14226,-0.0606 6.34348,0.0165 5.70967,2.18724 -0.36133,1.2375 -1.48658,5.4 -2.50057,9.25 -1.04784,3.97856 -2.43958,7.12 -3.22436,7.27801 -0.75941,0.1529 -5.71684,-2.9971 -11.0165,-7 z M 404.46988,357.75 C 402.5636,352.65132 398,337.62992 398,336.45394 398,335.65427 398.37332,335 398.82961,335 c 1.26871,0 22.05333,11.00157 22.67015,11.99961 0.29798,0.48214 -2.56397,2.88572 -6.35989,5.34129 -3.79592,2.45556 -7.20682,4.95841 -7.57979,5.56188 -0.9084,1.46983 -2.5132,1.39049 -3.0902,-0.15278 z M 477,351.38458 c -4.125,-2.41717 -7.5,-4.93354 -7.5,-5.59193 0,-1.5811 20.00303,-15.21783 21.21947,-14.46602 0.82917,0.51245 -2.37421,18.72531 -4.07144,23.1482 -0.7837,2.0423 -1.01628,1.9678 -9.64803,-3.09025 z m -41.11171,-8.45362 c -0.99657,-0.61591 5.51296,-23.67912 7.15706,-25.35743 0.54891,-0.56033 2.26168,2.04487 4.33392,6.59209 4.16071,9.1301 7.22118,17.57533 6.58761,18.17824 -0.74631,0.71021 -17.02407,1.23883 -18.07859,0.5871 z"
         id="path119" />
      <path
         style="fill:#fbb302"
         d="m 510.63002,685.75 c -0.32274,-1.2375 -2.35106,-4.56156 -4.50737,-7.38679 -2.15632,-2.82524 -9.98378,-14.07524 -17.39436,-25 -7.41058,-10.92477 -16.25203,-23.93296 -19.64766,-28.90711 -6.22995,-9.12603 -6.65541,-10.37215 -5.50801,-16.13217 1.34576,-6.75577 -7.71862,-17.74008 -12.97485,-15.72307 -1.60805,0.61706 -1.9638,-0.37465 -3.08534,-8.60086 -0.69751,-5.11611 -2.86513,-9 -5.02294,-9 -1.78006,0 -6.99746,-7.88047 -6.66456,-10.06629 0.1312,-0.86146 -0.65594,-2.37579 -1.74919,-3.36517 -1.09718,-0.99293 -2.28233,-3.76338 -2.64528,-6.18371 C 430.91926,551.97592 430.35042,551 428.87464,551 c -1.64676,0 -1.81557,-0.51719 -1.27411,-3.90333 0.54819,-3.42819 0.31433,-4.10635 -1.92112,-5.57107 -1.99065,-1.30433 -2.99521,-1.42696 -4.60997,-0.56276 -1.88468,1.00865 -2.29163,0.60076 -4.66815,-4.67893 -3.27907,-7.28482 -8.23631,-24.20942 -9.01665,-30.78391 l -0.59345,-5 7.83023,-6.34759 c 9.47291,-7.67923 22.02144,-14.04995 37.5808,-19.07929 2.03622,-0.65818 3.90061,-1.95638 4.14308,-2.8849 0.24247,-0.92852 0.99745,-3.82572 1.67774,-6.43822 0.68028,-2.6125 1.6284,-4.75 2.10692,-4.75 0.47852,0 0.87004,-1.26399 0.87004,-2.80887 0,-1.54488 0.66069,-3.68238 1.4682,-4.75 1.42094,-1.87865 1.46922,-1.86274 1.5,0.49442 0.0175,1.33955 1.00576,3.47228 2.19615,4.73939 1.58074,1.68262 2.12057,3.42106 2.002,6.4471 -0.54122,13.81232 5.01769,27.71842 15.02989,37.59858 5.84984,5.7727 6.87982,6.36565 14.30376,8.23465 4.4,1.10771 9.4625,2.02093 11.25,2.02938 L 512,513 v 87.5 c 0,48.125 1.46,89.45016 1.24463,89.45016 -0.21538,0 -2.29187,-2.96266 -2.61461,-4.20016 z m -23.0598,-257.21688 c -2.55091,-2.08524 -5.0052,-3.00939 -3.81857,-4.4392 3.3417,-4.0265 20.35543,-8.24974 22.69835,-6.00437 0.5225,0.50075 4.66708,0.32993 6.20708,0.32993 2.63017,0 0.34292,0.83991 0.34292,4.85695 v 4.27642 l -3.98087,-0.37964 c -2.26132,-0.21565 -6.97188,0.52886 -10.90524,1.72358 -3.8084,1.15676 -7.22187,2.65279 -7.41149,2.63301 -0.18962,-0.0198 -1.5208,-1.67945 -3.13218,-2.99668 z"
         id="path118" />
      <path
         style="fill:#038fe1"
         d="m 543.77571,677.8618 c -0.56893,-0.35184 -0.67695,-1.24921 -0.24075,-2 1.27242,-2.19011 17.47949,-27.12679 19.37362,-29.80882 1.45556,-2.06104 3.58065,-2.81131 13.47247,-4.75654 30.25757,-5.95015 60.63544,-19.91342 82.85047,-38.08244 11.39593,-9.3204 26.63585,-25.80944 33.98868,-36.77449 12.45793,-18.57814 22.78565,-44.02006 26.15814,-64.43951 0.86296,-5.225 1.87046,-14.76336 2.23889,-21.19636 l 0.66987,-11.69636 12.8582,-0.30364 11.8547,-1.35645 0.22523,15.92704 c -0.003,24.07678 -2.94995,45.71522 -10.61619,66.89352 C 714.52397,611.27943 657.92637,657.84912 587,673.3694 c -15.40526,3.37102 -40.77416,6.00767 -43.22429,4.4924 z M 638.6563,483.86747 c -2.80995,-1.63339 -4.74544,-7.09769 -3.71894,-10.49936 1.78391,-5.9116 8.18936,-18.40783 9.13583,-17.82287 1.89438,1.17078 9.92681,18.44315 9.92681,21.34588 0,5.98254 -9.56881,10.33321 -15.3437,6.97635 z m 36.67059,-8.56313 c -3.02788,-0.58979 -7.07779,-4.89373 -7.83075,-8.32193 -0.45261,-2.06072 0.41616,-5.4997 3.07622,-12.17707 2.03882,-5.11794 4.28676,-9.93192 4.9954,-10.69773 1.52349,-1.64639 3.08465,0.56031 9.5831,13.5457 4.71872,9.42908 4.51993,12.27141 -1.12584,16.09669 -3.2606,2.20922 -4.34305,2.40265 -8.69813,1.55434 z M 621,442.80243 c -6.7723,-4.58523 -6.05717,-12.64361 2.49072,-28.0661 3.84982,-6.94604 3.7883,-6.98848 10.07398,6.94993 5.21637,11.56723 5.52105,15.06713 1.6853,19.35971 -3.84257,4.30022 -9.46867,4.99369 -14.25,1.75646 z m 32.32849,-7.1963 c -2.17574,-1.87149 -2.77173,-3.23533 -2.73122,-6.25 0.0624,-4.64381 6.14145,-19.35613 7.99786,-19.35613 0.7248,0 3.42749,4.2497 6.00596,9.44377 4.3791,8.82125 4.6036,9.64786 3.4057,12.53983 -2.59811,6.27239 -9.59121,7.99826 -14.6783,3.62253 z M 589,393.46397 c -14.4387,-11.39941 -29.0657,-18.52013 -47.92034,-23.32857 -5.73119,-1.46161 -10.59682,-3.18688 -10.8125,-3.83393 -0.5875,-1.76249 7.32293,-9.21201 12.07137,-11.36803 2.28881,-1.03924 6.20897,-1.8994 8.71147,-1.91148 4.71278,-0.0227 6.94943,-1.30086 6.95079,-3.97196 4.3e-4,-0.8525 1.27917,-4.25221 2.84163,-7.55492 3.66857,-7.75456 12.06262,-15.56194 19.91092,-18.51933 8.24231,-3.10586 21.28699,-2.51295 29.67679,1.34889 11.37607,5.23642 17.24866,11.66532 20.54463,22.49081 1.17605,3.86269 2.17855,5.56303 3.12799,5.30537 4.12645,-1.1198 11.09433,-1.21088 14.20091,-0.18562 4.3755,1.44405 10.34984,7.46998 13.11378,13.22702 1.84683,3.84678 2.54087,4.39896 6.13148,4.87829 16.04425,2.14183 21.76362,21.35727 8.56484,28.7754 -3.8017,2.13667 -4.68645,2.1837 -40.74991,2.16622 L 598.5,400.96426 Z"
         id="path117" />
      <path
         style="fill:#ec2b2f"
         d="M 472,678.32026 C 408.34559,673.6476 350.83289,643.54318 316.11998,596.72652 295.49614,568.91152 284.54781,541.95922 279.46895,506.5 c -1.92373,-13.43093 -1.96831,-34.84068 -0.0758,-36.41131 0.92214,-0.7653 5.2327,-1.06026 12.75,-0.87244 L 303.5,469.5 l 0.72186,8 c 2.99395,33.1805 8.13069,51.42526 21.23395,75.41908 9.61277,17.60227 22.41529,33.59832 37.54419,46.90944 9.43755,8.3036 26.7697,20.11363 37.5,25.55231 13.84458,7.01715 40.12298,15.51869 53.12195,17.18592 2.81707,0.36132 5.55712,0.94411 6.089,1.29509 1.10697,0.7305 15.61455,22.34068 19.6184,29.22317 2.81346,4.83624 2.65886,6.02581 -0.74602,5.74028 C 477.4375,678.7292 474.475,678.50194 472,678.32026 Z"
         id="path116" />
      <path
         style="fill:#429608"
         d="m 512.24463,600.83357 0.25537,-89.16642 7,-1.41178 c 17.93192,-3.61654 30.38892,-16.25097 33.72856,-34.20895 3.8205,-20.5437 -13.26343,-43.77905 -34.4132,-46.80439 L 512.82351,427.86976 513,423.27643 c 0.14777,-3.84594 0.29202,-4.70076 1.94086,-6.07032 1.91812,-1.59323 2.07073,-2.93011 2.30658,-20.20611 l 0.25256,-18.5 6.45213,0.34261 c 9.48393,0.50359 20.05285,3.5278 31.59126,9.03958 14.08705,6.72924 21.44618,11.90858 32.00153,22.52261 17.88935,17.98878 28.58212,41.85149 31.46851,70.22718 1.13227,11.13124 0.86436,16.09695 -1.63843,30.36802 -4.8171,27.46749 -18.935,55.67718 -53.21967,106.34089 -29.75822,43.9748 -50.0494,73.59306 -51.15533,73.63696 -0.99999,0.0397 -0.9588,-19.11757 -0.75537,-90.14428 z M 721.19171,457.25 C 718.38825,426.90333 706.1422,396.68403 686.60587,369.5 665.65342,340.34547 630.99945,313.67158 597,300.52845 572.2746,290.97038 544.15296,285 523.85802,285 512.57367,285 513,285.43611 513,273.89301 L 512.9442,263.15086 525.23242,264 c 11.64059,0.80439 27.63138,2.35614 41.76761,5.48379 60.54464,13.39553 111.08551,47.53988 144.96557,97.93569 10.56813,15.71985 21.85762,40.50543 27.48233,60.33624 C 741.68182,435.63178 747,463.58245 747,467.44719 747,468.76676 745.15275,469 734.70175,469 l -12.41465,0.10728 z"
         id="path115" />
    </g>
  </g>
</svg>
